<svg width="122" height="97" viewBox="0 0 122 97" fill="none" xmlns="http://www.w3.org/2000/svg">
<path fill-rule="evenodd" clip-rule="evenodd" d="M109.17 54.5852C109.17 54.5852 109.632 54.9787 109.978 55.3651C114.294 60.1946 116.606 63.9168 118.146 67.5822C119.713 71.3115 119.583 73.7478 118.688 75.2366C117.793 76.7255 115.702 77.9829 111.674 78.3483C107.714 78.7074 102.442 78.1348 96.1522 76.588C92.0517 75.5796 87.5833 74.1734 82.853 72.3931C85.4961 71.769 87.9894 70.9401 90.3494 69.8889C96.5803 67.1135 101.383 63.1238 104.758 57.9198C105.544 56.7089 106.571 54.8916 107.173 53.5867C97.2212 42.7881 80.4187 32.0278 64.0076 22.951C48.8436 14.564 33.9611 7.52944 24.6299 5.28183V37.9165C20.0096 33.9813 15.9947 30.1032 12.6985 26.415C8.38239 21.5854 5.40393 17.1976 3.86397 13.5322C2.29718 9.8029 2.4272 7.36664 3.32231 5.87778C4.21742 4.38893 6.30811 3.13145 10.3366 2.76611C13.2993 2.49743 16.9969 2.75033 21.3057 3.54267L21.7048 0.908722C11.2869 -0.994325 3.72565 0.0391881 1.04028 4.50581C-3.36338 11.8305 6.53657 26.4055 24.6299 41.3936V96.5226H55.2509V73.8897H68.5643C71.8555 73.8897 74.9569 73.7014 77.8869 73.3051C99.3511 82.0579 116.604 83.8703 120.97 76.6086C124.17 71.2856 119.732 62.2794 110.169 51.9225L109.17 54.5852ZM45.3315 41.3247C45.2924 41.1517 45.0459 41.1517 45.0068 41.3247L43.1918 49.3597C43.1665 49.4718 43.0378 49.5251 42.9406 49.4637L35.9757 45.0655C35.8257 44.9708 35.6514 45.1451 35.7461 45.2951L40.1443 52.2601C40.2057 52.3573 40.1524 52.4859 40.0403 52.5112L32.0053 54.3262C31.8323 54.3653 31.8323 54.6118 32.0053 54.6509L40.0403 56.4659C40.1524 56.4912 40.2057 56.6199 40.1443 56.7171L35.7461 63.682C35.6514 63.832 35.8257 64.0063 35.9757 63.9116L42.9406 59.5134C43.0378 59.452 43.1665 59.5053 43.1918 59.6174L45.0068 67.6524C45.0459 67.8254 45.2924 67.8254 45.3315 67.6524L47.1464 59.6174C47.1718 59.5053 47.3004 59.452 47.3976 59.5134L54.3626 63.9116C54.5126 64.0063 54.6869 63.832 54.5922 63.682L50.194 56.7171C50.1326 56.6199 50.1859 56.4912 50.298 56.4659L58.333 54.6509C58.506 54.6118 58.506 54.3653 58.333 54.3262L50.298 52.5112C50.1859 52.4859 50.1326 52.3573 50.194 52.2601L54.5922 45.2951C54.6869 45.1451 54.5126 44.9708 54.3626 45.0655L47.3976 49.4637C47.3004 49.5251 47.1718 49.4718 47.1464 49.3597L45.3315 41.3247Z" fill="white"/>
<path d="M33.936 5.32541H68.3759C76.7703 5.32541 84.083 6.71313 90.3139 9.48857C96.5448 12.264 101.348 16.2537 104.723 21.4577C108.098 26.6616 109.785 32.7329 109.785 39.6715C109.785 43.6217 109.238 47.2908 108.145 50.6788C97.7527 39.8545 81.5153 28.8159 65.5831 20.004C54.301 13.764 43.0254 8.55987 33.936 5.32541Z" fill="white"/>
</svg>
